# xmcd
#
# Track frame offsets:
#	150
#	14426
#	35684
#	52484
#	68084
#	96442
#	126015
#	142901
#	159264
#	181977
#	204589
#	220942
#	238463
#	252713
#	266938
#	283684
#	298933
#	315211
#
# Disc length: 4393 seconds
#
# Revision: 0
# Processed by: cddbd v1.5PL3 Copyright (c) Steve Scherf et al.
# Submitted via: audiograbber 1.83.01
#
DISCID=25112712
DTITLE=Various Artist - Satisfactin Hits 1. (2003)
DYEAR=1900
DGENRE=Club-House
TTITLE0=Bob Sinclar. - Kiss My Eyes.
TTITLE1=Snooza and Papa Winnie. - Money Problems. (Dj Raf Electro Rmx)
TTITLE2=Cargo. - I'll Show You.
TTITLE3=Bobby Ewing. - Sunlight.
TTITLE4=Think About Cosmos. - Miss You So. (Beatchuggers Piano Mix)
TTITLE5=Master Freakz. - Make Luv. - Let Yourself Go. (Original Mix)
TTITLE6=Jason Nevins pres. U.K.N.Y feat. Holly James. - I'm In Heaven. (Radio M
TTITLE6=ix)
TTITLE7=Ortz. - We Don't Talk. (Brother Brown Radio Edit)
TTITLE8=Aerosol feat. Anne Murillo. - Let The Music Play. (Yar Toski Rmx)
TTITLE9=Ann Lee. - No No No. (Sfaction Mix)
TTITLE10=P-Control. - Clown Song.
TTITLE11=Sunburner. - Final Warning. (Radio Mix)
TTITLE12=NCA. (No Clouds Aloud) - I Can't Dance.
TTITLE13=The Saxbrothers. - Careless Whisper. (Radio Mix)
TTITLE14=Blush. - In and Out.
TTITLE15=Morgan feat. Christine. - Time After Time.
TTITLE16=Saphire. - There's Someone Watching.
TTITLE17=Cetroit. - Mind Yourself. (Club Mix)
EXTD=
EXTT0=
EXTT1=
EXTT2=
EXTT3=
EXTT4=
EXTT5=
EXTT6=
EXTT7=
EXTT8=
EXTT9=
EXTT10=
EXTT11=
EXTT12=
EXTT13=
EXTT14=
EXTT15=
EXTT16=
EXTT17=
PLAYORDER=
